<?xml version="1.0" standalone="no"?>
<!DOCTYPE svg PUBLIC "-//W3C//DTD SVG 1.1//EN" "http://www.w3.org/Graphics/SVG/1.1/DTD/svg11.dtd" >
<svg xmlns="http://www.w3.org/2000/svg">
<metadata></metadata>
<defs>
<font id="OsloRegular" horiz-adv-x="1024" >
<font-face units-per-em="2048" ascent="1638" descent="-410" />
<missing-glyph horiz-adv-x="790" />
<glyph horiz-adv-x="0" />
<glyph horiz-adv-x="2048" />
<glyph unicode=" "  horiz-adv-x="790" />
<glyph unicode="&#x09;" horiz-adv-x="790" />
<glyph unicode="&#xa0;" horiz-adv-x="790" />
<glyph unicode="!" horiz-adv-x="579" d="M205 104q0 103 100 103q56 0 78.5 -27t22.5 -76q0 -104 -101 -104q-53 0 -76.5 26t-23.5 78zM221 1010l4 448h158l4 -448l-14 -654h-135z" />
<glyph unicode="&#x22;" horiz-adv-x="755" d="M203 1458h155l-2 -244l-8 -229h-135l-8 232zM453 1458h155l-2 -244l-8 -229h-135l-8 232z" />
<glyph unicode="#" horiz-adv-x="1189" d="M88 442v140h231l54 305h-232v139h252l68 432h145l-67 -432h254l69 432h144l-68 -432h195v-139h-215l-54 -305h215v-140h-235l-70 -442h-145l69 442h-256l-69 -442h-146l70 442h-209zM465 582h254l55 305h-258z" />
<glyph unicode="$" horiz-adv-x="1150" d="M111 186l71 136q147 -199 373 -199q129 0 223 72t94 192q0 33 -10.5 63t-24 52t-43 45.5t-50 37t-62.5 33.5t-64 29t-71 29q-88 34 -149.5 66.5t-121 80.5t-90 112.5t-30.5 145.5q0 143 105.5 247t256.5 128v135h137v-131q78 -4 175.5 -48t144.5 -95l-64 -141 q-131 143 -319 143q-123 0 -202 -67t-79 -171q0 -35 12 -66t38.5 -57t52 -46t69.5 -41.5t72.5 -33.5t77.5 -32q58 -24 95 -40.5t83 -41t74.5 -46.5t58.5 -53t46.5 -65t27 -78t10.5 -96q0 -149 -108.5 -259t-264.5 -136v-205h-137v197q-112 4 -226 62t-181 142z" />
<glyph unicode="%" horiz-adv-x="1736" d="M133 1116q0 152 94.5 253t243.5 101t243.5 -102t94.5 -254q0 -154 -93 -255t-245 -101q-153 0 -245.5 101t-92.5 257zM274 1116q0 -97 56.5 -159t142.5 -62q87 0 141 61t54 160q0 96 -54.5 157.5t-140.5 61.5t-142.5 -62t-56.5 -157zM326 -27l919 1506h154l-922 -1506 h-151zM922 344q0 151 94 250.5t244 99.5q149 0 242 -100.5t93 -251.5q0 -152 -92.5 -253t-242.5 -101q-152 0 -245 98.5t-93 257.5zM1063 344q0 -97 55.5 -159t141.5 -62q87 0 140.5 61t53.5 160q0 95 -54 157t-140 62t-141.5 -62.5t-55.5 -156.5z" />
<glyph unicode="&#x26;" horiz-adv-x="1337" d="M76 367q0 292 346 458q-143 180 -143 332q0 143 98 228t244 85q133 0 227 -86.5t94 -214.5q0 -223 -293 -385q43 -51 151.5 -178.5t166.5 -197.5q47 57 82.5 148t48.5 175h147q-35 -233 -178 -436l238 -297h-189l-151 182q-200 -203 -455 -203q-183 0 -308.5 107 t-125.5 283zM236 377q0 -112 80 -186t194 -74q181 0 358 174q-234 272 -356 422q-276 -131 -276 -336zM432 1165q0 -121 125 -270q225 111 225 266q0 77 -47 122.5t-123 45.5q-75 0 -127.5 -46.5t-52.5 -117.5z" />
<glyph unicode="'" horiz-adv-x="559" d="M199 1335q-7 71 8 97t53 26h37q34 0 50.5 -17t16 -41t-1.5 -50q0 -2 -1 -6.5t-1 -6.5q-19 -247 -26 -299q-4 -37 -14 -44t-50 -7q-25 0 -37 8t-13.5 17.5t-0.5 27.5q-5 161 -20 295z" />
<glyph unicode="(" horiz-adv-x="589" d="M109 598q0 222 88 480t219 429l143 -12q-132 -172 -216.5 -425t-84.5 -472t83 -467.5t218 -429.5l-143 -12q-132 172 -219.5 430t-87.5 479z" />
<glyph unicode=")" horiz-adv-x="579" d="M39 -299q133 177 217 427.5t84 469.5q0 218 -84 469.5t-217 427.5l143 12q132 -171 219.5 -427.5t87.5 -481.5q0 -222 -87.5 -479.5t-219.5 -429.5z" />
<glyph unicode="*" horiz-adv-x="1075" d="M184 948l248 127l-248 127l74 129l240 -151l-17 280h148l-17 -280l240 151l74 -129l-248 -127l248 -127l-74 -129l-240 152l17 -281h-150l19 281l-240 -152z" />
<glyph unicode="+" horiz-adv-x="1277" d="M98 498v151h457v451h152v-451h456v-151h-456v-457h-152v457h-457z" />
<glyph unicode="," horiz-adv-x="520" d="M143 -207q54 188 54 285q0 69 18.5 94t56.5 25h45q62 0 62 -68q0 -18 -12 -78q-13 -42 -52 -143t-55 -133q-9 -18 -22 -27t-22.5 -10.5t-29.5 -1.5q-63 0 -41 57h-2z" />
<glyph unicode="-" horiz-adv-x="610" d="M53 479v152h504v-152h-504z" />
<glyph unicode="." horiz-adv-x="526" d="M172 104q0 65 20 86t78 21q61 0 80 -21t19 -86q0 -64 -21.5 -86t-77.5 -22q-64 0 -81 20.5t-17 87.5z" />
<glyph unicode="/" horiz-adv-x="716" d="M-33 -66l635 1569h156l-633 -1569h-158z" />
<glyph unicode="0" horiz-adv-x="1120" d="M72 727q0 77 7.5 151t24.5 149t43 140t66 122t90.5 97.5t119 63.5t148.5 23q79 0 147 -23t118 -63.5t90 -97t66 -121t43 -139t24.5 -148t7.5 -150.5q0 -110 -14.5 -211.5t-51 -201t-91.5 -172t-142.5 -117.5t-198.5 -45t-198.5 44.5t-142.5 116.5t-91 170.5t-50.5 200 t-14.5 211.5zM231 731q0 -70 6.5 -136t20.5 -136.5t40 -128t62 -104.5t90 -73t121 -26q78 0 139 38.5t97 98.5t59.5 142t32 159.5t8.5 161.5q0 280 -89.5 441t-248.5 161q-66 0 -119.5 -26t-89.5 -73t-62 -104.5t-40 -127t-20.5 -134.5t-6.5 -133z" />
<glyph unicode="1" horiz-adv-x="747" d="M115 1327l288 131h86v-1458h-157v1276l-162 -74z" />
<glyph unicode="2" horiz-adv-x="1128" d="M100 0v96q37 51 108 129.5t184 202t206 229.5q107 123 160 220t53 180q0 118 -79 195t-197 77q-103 0 -197.5 -58.5t-140.5 -158.5l-88 123q56 106 181.5 172t248.5 66q188 0 311 -113t123 -297q0 -233 -375 -623q-170 -176 -264 -295h670v-145h-904z" />
<glyph unicode="3" horiz-adv-x="1128" d="M92 156l82 149q48 -88 141 -133t191 -45q150 0 240 79.5t90 211.5q0 131 -91 200.5t-258 69.5h-98v146h70q168 0 265 70t97 196q0 99 -81.5 164t-209.5 65q-91 0 -176 -43.5t-135 -128.5l-61 152q38 61 148 112.5t231 51.5t220 -40.5t161.5 -127t62.5 -205.5 q0 -227 -219 -330q111 -40 172 -132t61 -222q0 -137 -66 -236.5t-175.5 -147.5t-247.5 -48q-136 0 -245.5 50.5t-168.5 121.5z" />
<glyph unicode="4" horiz-adv-x="1130" d="M29 362v107l706 989h137v-952h209v-144h-209v-362h-155v362h-688zM227 506h490v696z" />
<glyph unicode="5" horiz-adv-x="1128" d="M106 143l58 144q52 -70 149.5 -115t180.5 -45q160 0 261 94t101 252q0 153 -95.5 242.5t-256.5 89.5q-99 0 -217 -82l-90 12l61 723h694v-145h-551l-34 -393q60 28 168 28q213 0 346 -130t133 -341q0 -224 -145.5 -358.5t-374.5 -134.5q-104 0 -216.5 42t-171.5 117z" />
<glyph unicode="6" horiz-adv-x="1161" d="M96 592q0 112 30.5 233.5t90 235.5t139 204.5t187 145.5t223.5 55q47 0 94 -8l27 -143q-69 14 -113 14q-213 0 -375 -246q-66 -97 -112 -274q123 117 311 117q136 0 243 -63.5t164.5 -171t57.5 -238.5q0 -133 -67 -242t-176 -168t-236 -59q-105 0 -189 34.5t-139 92.5 t-91.5 137.5t-52.5 164.5t-16 179zM258 502q12 -182 94.5 -278.5t231.5 -96.5q139 0 229 94.5t90 231.5q0 147 -86 237t-227 90q-131 0 -231.5 -78.5t-100.5 -199.5z" />
<glyph unicode="7" horiz-adv-x="1130" d="M104 1313v145h955v-86l-686 -1401l-164 29l651 1313h-756z" />
<glyph unicode="8" horiz-adv-x="1128" d="M102 387q0 257 258 373q-219 130 -219 336q0 87 36.5 159.5t98 119.5t140 72.5t164.5 25.5q178 0 298.5 -103.5t120.5 -275.5q0 -209 -219 -334q258 -117 258 -367q0 -130 -64.5 -224.5t-169 -139.5t-235.5 -45q-126 0 -231 45.5t-170.5 139t-65.5 218.5zM260 395 q0 -123 90.5 -195.5t220.5 -72.5t221 72t91 194q0 104 -84 180.5t-228 112.5q-311 -73 -311 -291zM301 1092q0 -95 75.5 -169.5t194.5 -97.5q102 22 185.5 100.5t83.5 170.5q0 104 -79.5 167.5t-189.5 63.5q-119 0 -194.5 -65.5t-75.5 -169.5z" />
<glyph unicode="9" horiz-adv-x="1128" d="M72 999q0 205 136.5 339.5t342.5 134.5q107 0 191.5 -31.5t140 -86.5t92.5 -133.5t53 -167.5t16 -194q0 -313 -167 -557q-166 -240 -402 -285q-37 -6 -90 -6q-72 0 -139 11l-10 151q91 -18 137 -18q230 0 379 225q38 56 73.5 138.5t48.5 152.5q-68 -65 -155 -102.5 t-178 -37.5q-205 0 -337 131t-132 336zM231 1001q0 -142 86 -233.5t226 -91.5q64 0 124 20.5t108 59.5t77 101t29 138q0 61 -23 120t-64.5 107t-105.5 77.5t-139 29.5q-140 0 -229 -93t-89 -235z" />
<glyph unicode=":" horiz-adv-x="552" d="M176 106q0 65 20 86t78 21q61 0 80 -21t19 -86q0 -64 -21.5 -86t-77.5 -22q-64 0 -81 20.5t-17 87.5zM176 858q0 66 20 87.5t78 21.5q61 0 80 -21.5t19 -87.5q0 -64 -21.5 -85t-77.5 -21q-64 0 -81 19.5t-17 86.5z" />
<glyph unicode=";" horiz-adv-x="581" d="M143 -207q54 188 54 285q0 69 18.5 94t56.5 25h45q62 0 62 -68q0 -18 -12 -78q-13 -42 -52 -143t-55 -133q-9 -18 -22 -27t-22.5 -10.5t-29.5 -1.5q-63 0 -41 57h-2zM193 858q0 66 20 87.5t78 21.5q59 0 77.5 -21t18.5 -88q0 -64 -20 -85t-76 -21q-64 0 -81 19.5 t-17 86.5z" />
<glyph unicode="&#x3c;" horiz-adv-x="1247" d="M100 506v127l1065 477v-154l-866 -387l866 -387v-151z" />
<glyph unicode="=" horiz-adv-x="1286" d="M98 293v151h1065v-151h-1065zM98 694v152h1065v-152h-1065z" />
<glyph unicode="&#x3e;" horiz-adv-x="1282" d="M100 31v151l867 387l-867 387v154l1065 -477v-127z" />
<glyph unicode="?" horiz-adv-x="911" d="M106 1305q31 71 121 122.5t187 51.5q163 0 262.5 -97t99.5 -258q0 -40 -12 -79t-25.5 -65.5t-44 -64t-46 -53.5t-54.5 -55q-97 -97 -125.5 -140t-28.5 -96q0 -59 45 -151l-120 -72q-84 122 -84 223q0 21 3.5 42.5t8 38.5t15 37.5t17 34t22.5 34t23 30t27 30.5t26.5 27.5 l28.5 28.5l27 27q73 73 107.5 123t34.5 104q0 94 -57.5 150.5t-155.5 56.5q-64 0 -129 -45.5t-95 -107.5zM303 106q0 65 20 86t78 21q60 0 78.5 -21t18.5 -86q0 -64 -21 -86t-76 -22q-64 0 -81 20.5t-17 87.5z" />
<glyph unicode="@" horiz-adv-x="1636" d="M66 705q0 148 61.5 289.5t165 248t250 171.5t305.5 65q190 0 354.5 -87.5t261.5 -237.5t97 -325q0 -147 -57 -265.5t-151.5 -183.5t-205.5 -65q-61 0 -108.5 32.5t-61.5 96.5q-86 -129 -272 -129q-118 0 -200.5 97t-82.5 241q0 97 40 190t103.5 160t144.5 107.5t160 40.5 q150 0 228 -74.5t78 -197.5q0 -55 -17 -125l-55 -207q-4 -16 -4 -23q0 -34 16 -60t39 -26q101 0 181.5 120t80.5 278q0 101 -45.5 194.5t-121.5 161.5t-181 108.5t-219 40.5q-128 0 -245.5 -51t-203.5 -138t-137 -207.5t-51 -252.5q0 -127 52 -245.5t138 -204.5t203 -137.5 t242 -51.5q167 0 320.5 74.5t236.5 198.5l82 -107q-78 -129 -257.5 -216t-367.5 -87q-165 0 -313 62.5t-253.5 168t-167.5 251.5t-62 307zM573 633q0 -178 142 -178q143 0 227 135q34 57 61 138.5t27 150.5q0 135 -158 135q-121 0 -210 -116t-89 -265z" />
<glyph unicode="A" horiz-adv-x="1341" d="M14 0l586 1470h137l578 -1470h-168l-170 438h-627l-170 -438h-166zM410 584h512l-256 657z" />
<glyph unicode="B" horiz-adv-x="1187" d="M166 0v1458h362q465 0 465 -381q0 -217 -182 -307q126 -43 195 -135.5t69 -218.5q0 -199 -136 -307.5t-384 -108.5h-389zM326 145h227q169 0 263.5 68.5t94.5 194.5q0 272 -376 272h-209v-535zM326 825h188q315 0 315 246q0 242 -317 242h-186v-488z" />
<glyph unicode="C" horiz-adv-x="1376" d="M96 729q0 156 52.5 294t145.5 238t227 158t290 58q281 0 449 -177l-52 -153q-172 184 -403 184q-124 0 -227.5 -47.5t-172.5 -129t-107 -191.5t-38 -234q0 -168 64.5 -304.5t191 -218t293.5 -81.5q253 0 410 194l41 -147q-171 -192 -441 -192q-214 0 -379.5 97 t-254.5 267t-89 385z" />
<glyph unicode="D" horiz-adv-x="1390" d="M168 0v1458h397q337 0 528 -195.5t191 -535.5q0 -337 -203 -534q-199 -193 -559 -193h-354zM328 145h190q284 0 443 154t159 428q0 278 -148.5 432t-418.5 154h-225v-1168z" />
<glyph unicode="E" horiz-adv-x="1064" d="M168 0v1458h772v-145h-612v-484h553v-145h-553v-539h630v-145h-790z" />
<glyph unicode="F" horiz-adv-x="942" d="M160 0v1458h735v-145h-576v-477h510v-148h-510v-688h-159z" />
<glyph unicode="G" horiz-adv-x="1497" d="M104 731q0 324 199 535t512 211q160 0 295 -56q136 -58 211 -155l-70 -140q-187 205 -436 205q-243 0 -395 -168q-154 -171 -154 -432q0 -174 69 -311.5t198 -216t298 -78.5q73 0 146.5 23.5t135 73t83.5 114.5v264h-367v143h527v-477q-163 -286 -531 -286 q-163 0 -299.5 59t-228 161t-142.5 239t-51 292z" />
<glyph unicode="H" horiz-adv-x="1433" d="M174 0v1458h158v-629h770v629h158v-1458h-158v684h-770v-684h-158z" />
<glyph unicode="I" horiz-adv-x="450" d="M154 0v1458h159v-1458h-159z" />
<glyph unicode="J" horiz-adv-x="616" d="M-92 -109l72 146q28 -40 73 -62t80 -22q166 0 166 250v1255h160v-1270q0 -383 -324 -383q-59 0 -124.5 23t-102.5 63z" />
<glyph unicode="K" horiz-adv-x="1212" d="M176 0v1458h160v-653l631 653h213l-664 -676l717 -782h-209l-612 678l-76 -82v-596h-160z" />
<glyph unicode="L" horiz-adv-x="897" d="M160 0v1458h159v-1313h562v-145h-721z" />
<glyph unicode="M" horiz-adv-x="1761" d="M145 0l68 1460h182l488 -1093l485 1093h176l68 -1460h-160l-49 1190l-473 -1081h-96l-480 1085l-49 -1194h-160z" />
<glyph unicode="N" horiz-adv-x="1515" d="M166 0v1458h160l858 -1179v1179h159v-1458h-145l-872 1192v-1192h-160z" />
<glyph unicode="O" horiz-adv-x="1554" d="M96 729q0 155 46.5 291.5t132 238t214.5 160t285 58.5q125 0 233.5 -38t189.5 -106.5t139.5 -161.5t88 -205.5t29.5 -236.5q0 -155 -47 -291.5t-133 -238t-215.5 -160.5t-284.5 -59q-207 0 -363 101.5t-235.5 270t-79.5 377.5zM260 729q0 -120 35 -228.5t98.5 -192.5 t162.5 -133.5t218 -49.5t217.5 49.5t163 133.5t100 192.5t35.5 228.5q0 118 -35.5 226t-100 192t-163.5 134t-217 50q-119 0 -217.5 -50t-162.5 -134t-99 -192t-35 -226z" />
<glyph unicode="P" horiz-adv-x="1064" d="M170 0v1458h381q219 0 338 -107.5t119 -306.5q0 -187 -125.5 -296t-339.5 -109h-213v-639h-160zM330 786h188q163 0 245.5 68t82.5 199q0 260 -297 260h-219v-527z" />
<glyph unicode="Q" horiz-adv-x="1554" d="M96 729q0 155 46.5 291.5t132 238t214.5 160t285 58.5q125 0 233.5 -38t189.5 -106.5t139.5 -161.5t88 -205.5t29.5 -236.5q0 -405 -285 -625l195 -202l-117 -90l-207 217q-95 -49 -266 -49q-207 0 -363 101.5t-235.5 270t-79.5 377.5zM260 729q0 -120 35 -228.5 t98.5 -192.5t162.5 -133.5t218 -49.5q88 0 152 18l-90 99l110 92l111 -123q233 186 233 518q0 118 -35.5 226t-100 192t-163.5 134t-217 50q-119 0 -217.5 -50t-162.5 -134t-99 -192t-35 -226z" />
<glyph unicode="R" horiz-adv-x="1148" d="M172 0v1458h367q219 0 338.5 -101.5t119.5 -291.5q0 -145 -78 -237.5t-219 -122.5q59 -53 156 -228l266 -477h-178l-242 432q-21 39 -28.5 51.5t-27.5 45.5t-30.5 46t-29.5 35.5t-34.5 31t-35.5 16.5t-41 8h-145v-666h-158zM330 811h186q149 0 233.5 68t84.5 190 q0 244 -310 244h-194v-502z" />
<glyph unicode="S" horiz-adv-x="1042" d="M84 174l74 158q54 -94 150 -150.5t192 -56.5q124 0 211.5 75t87.5 193q0 34 -9.5 64t-22 52.5t-39 45t-47 37t-59.5 34t-62.5 30t-70.5 30.5q-69 29 -118.5 54t-101 62t-83 77t-51.5 95.5t-20 121.5q0 114 60.5 202.5t157.5 133.5t212 45q112 0 216 -45.5t152 -112.5 l-71 -137q-113 149 -297 149q-118 0 -193.5 -66t-75.5 -171q0 -30 10.5 -57.5t25 -48.5t42 -43.5t49 -37t60 -33.5t61 -29t64.5 -28q90 -39 150.5 -74.5t115 -86t81 -116t26.5 -149.5q0 -121 -64 -216.5t-167.5 -145t-225.5 -49.5q-284 0 -420 194z" />
<glyph unicode="T" horiz-adv-x="1054" d="M18 1313v145h1020v-145h-430v-1313h-159v1313h-431z" />
<glyph unicode="U" horiz-adv-x="1390" d="M160 516v942h157v-934q0 -191 100 -295t283 -104q181 0 281 106t100 297v930h158v-936q0 -250 -145.5 -396t-393.5 -146q-245 0 -397 143q-143 146 -143 393z" />
<glyph unicode="V" horiz-adv-x="1193" d="M-2 1458h166l436 -1206l440 1206h164l-551 -1472h-112z" />
<glyph unicode="W" horiz-adv-x="2007" d="M18 1458h166l361 -1163l393 1163h121l387 -1165l366 1165h160l-463 -1458h-120l-392 1178l-397 -1178h-127z" />
<glyph unicode="X" horiz-adv-x="1200" d="M-4 0l514 754l-481 704h190l391 -573l389 573h189l-481 -704l514 -754h-193l-420 623l-424 -623h-188z" />
<glyph unicode="Y" horiz-adv-x="1189" d="M-2 1458h188l408 -657l418 657h182l-518 -809v-649h-160v651z" />
<glyph unicode="Z" horiz-adv-x="1128" d="M41 0v106l811 1207h-764v145h979v-104l-811 -1209h821v-145h-1036z" />
<glyph unicode="[" horiz-adv-x="581" d="M133 -311v1829h420v-129h-270v-1569h270v-131h-420z" />
<glyph unicode="\" horiz-adv-x="724" d="M-33 1503h154l641 -1519h-154z" />
<glyph unicode="]" horiz-adv-x="614" d="M49 -225h270v1568h-270v130h420v-1827h-420v129z" />
<glyph unicode="^" horiz-adv-x="1218" d="M111 621l460 839h119l459 -835h-160l-358 647l-361 -651h-159z" />
<glyph unicode="_" d="M-8 -127h1046v-143h-1046v143z" />
<glyph unicode="`" horiz-adv-x="428" d="M16 1436h205l180 -265h-129z" />
<glyph unicode="a" horiz-adv-x="987" d="M70 276q0 158 118 251.5t322 93.5q103 0 192 -13v119q0 176 -221 176q-154 0 -286 -117l-54 121q49 56 153.5 93.5t192.5 37.5q365 0 365 -321v-561q10 -109 12 -156h-143q-10 60 -12 98q-127 -118 -301 -118q-152 0 -245 83t-93 213zM221 279q0 -75 52.5 -119.5 t150.5 -44.5q99 0 177.5 60t100.5 153v151q-87 17 -198 17q-124 0 -203.5 -53.5t-79.5 -163.5z" />
<glyph unicode="b" horiz-adv-x="1124" d="M145 0v1534h152v-637q136 139 311 139q203 0 321 -142t118 -384q0 -112 -30.5 -207.5t-88.5 -168t-148 -113.5t-202 -41q-183 0 -306 126q0 -44 -4 -106h-123zM295 403q0 -119 84.5 -203.5t202.5 -84.5q100 0 171.5 58t103.5 145t32 192q0 179 -79 286t-214 107 q-116 0 -199 -84.5t-102 -214.5v-201z" />
<glyph unicode="c" horiz-adv-x="925" d="M70 508q0 151 59 270t172 188.5t262 69.5q182 0 303 -118l-37 -146q-124 127 -262 127q-157 0 -250.5 -105t-93.5 -282q0 -170 91.5 -283.5t252.5 -113.5q64 0 144 37.5t129 95.5l34 -150q-124 -118 -315 -118q-228 0 -358.5 147t-130.5 381z" />
<glyph unicode="d" horiz-adv-x="1105" d="M78 506q0 112 28.5 207.5t83 168t142.5 113.5t200 41q97 0 168 -26.5t127 -91.5v616h152v-1534h-143l-5 106q-114 -126 -294 -126q-111 0 -199.5 41t-144.5 112.5t-85.5 166.5t-29.5 206zM233 506q0 -177 85 -284t227 -107q114 0 194 84.5t88 201.5v217q0 115 -85.5 198 t-200.5 83q-141 0 -224.5 -107t-83.5 -286z" />
<glyph unicode="e" d="M70 512q0 101 31 195t86.5 167.5t141.5 117.5t189 44q202 0 316 -146t114 -413h-727q11 -164 95 -263t241 -99q74 0 159.5 41.5t131.5 105.5l76 -115q-55 -75 -160.5 -121t-218.5 -46q-223 0 -349 141.5t-126 390.5zM229 610h555q-19 131 -88 210t-172 79 q-119 0 -197 -81.5t-98 -207.5z" />
<glyph unicode="f" horiz-adv-x="575" d="M23 881v133h167v186q0 346 291 346q74 0 135 -30v-138q-84 33 -133 33q-141 0 -141 -207v-190h213v-133h-213v-881h-152v881h-167z" />
<glyph unicode="g" d="M49 -166q0 147 180 229q-75 47 -75 132q0 100 108 157q-151 110 -151 305q0 164 111.5 271.5t277.5 107.5q114 0 207 -55q104 59 290 59v-131q-108 0 -176 -22q66 -98 66 -234q0 -170 -110.5 -273.5t-282.5 -103.5q-43 0 -97 13q-27 -10 -43 -18.5t-31.5 -24.5t-15.5 -35 q0 -65 228 -74q438 -15 438 -287q0 -69 -28.5 -121.5t-73.5 -84t-107.5 -52t-123.5 -27.5t-130 -7q-216 0 -338.5 73.5t-122.5 202.5zM199 -162q0 -46 29 -77.5t78.5 -46.5t97 -21t102.5 -6q53 0 102 6.5t99.5 22.5t81 49t30.5 79q0 64 -80.5 105t-220.5 47l-61 6 q-58 -11 -93 -20.5t-78.5 -28t-65 -47.5t-21.5 -68zM264 653q0 -106 65 -174.5t169 -68.5q106 0 171.5 65.5t65.5 175.5q0 121 -62 187.5t-173 66.5q-105 0 -170.5 -70t-65.5 -182z" />
<glyph unicode="h" horiz-adv-x="1069" d="M143 0v1534h152v-629q110 131 291 131q348 0 348 -391v-645h-152v633q0 266 -207 266q-116 0 -198 -85.5t-82 -197.5v-616h-152z" />
<glyph unicode="i" horiz-adv-x="409" d="M137 1337q0 56 15.5 80.5t68.5 24.5q30 0 48 -6.5t25.5 -24t9 -31.5t1.5 -43q0 -57 -17 -79.5t-67 -22.5q-53 0 -68.5 23.5t-15.5 78.5zM145 0v1024h152v-1024h-152z" />
<glyph unicode="j" horiz-adv-x="430" d="M-16 -291q95 -6 127 33.5t32 151.5v1130h152v-1133q0 -169 -72 -253.5t-239 -75.5v147zM135 1337q0 56 15.5 80.5t68.5 24.5q30 0 48 -6.5t25.5 -24t9 -31.5t1.5 -43q0 -57 -17 -79.5t-67 -22.5q-53 0 -68.5 23.5t-15.5 78.5z" />
<glyph unicode="k" horiz-adv-x="966" d="M145 0v1532h152v-928l432 420h195l-465 -453l536 -571h-198l-459 481l-41 -39v-442h-152z" />
<glyph unicode="l" horiz-adv-x="432" d="M137 0v1534h152v-1534h-152z" />
<glyph unicode="m" horiz-adv-x="1636" d="M152 0v1024h133l8 -117q110 129 274 129q94 0 163 -42t106 -109q49 74 132 112.5t175 38.5q174 0 258 -94t84 -283v-659h-152v655q0 244 -186 244q-105 0 -179.5 -75t-74.5 -195v-629h-150v655q0 244 -184 244q-105 0 -180.5 -80t-75.5 -196v-623h-151z" />
<glyph unicode="n" horiz-adv-x="1064" d="M143 0v1024h140l4 -117q54 72 122.5 102.5t163.5 30.5q172 0 266.5 -101t94.5 -294v-645h-152v633q0 132 -58 202t-163 70q-109 0 -187.5 -84.5t-78.5 -204.5v-616h-152z" />
<glyph unicode="o" horiz-adv-x="1110" d="M72 508q0 148 56.5 267t167 190t257.5 71t257.5 -71t167 -190t56.5 -267q0 -150 -56 -268.5t-166.5 -189t-258.5 -70.5t-258.5 70.5t-166.5 189t-56 268.5zM227 508q0 -79 21.5 -149t61.5 -125t103 -87t140 -32q152 0 239 115t87 278q0 105 -36 192.5t-112 143t-178 55.5 q-77 0 -140 -32t-103 -86t-61.5 -124t-21.5 -149z" />
<glyph unicode="p" horiz-adv-x="1110" d="M145 -440v1464h131l15 -117q121 127 295 127q111 0 198.5 -41t143.5 -113.5t85 -167.5t29 -206q0 -107 -29 -201t-83.5 -167t-141 -115.5t-194.5 -42.5q-186 0 -297 120v-540h-152zM295 406q0 -111 85.5 -201t194.5 -90q147 0 228.5 104.5t81.5 288.5q0 102 -33 188.5 t-104.5 143.5t-169.5 57q-112 0 -197.5 -89.5t-85.5 -213.5v-188z" />
<glyph unicode="q" horiz-adv-x="1103" d="M76 500q0 249 120.5 391.5t335.5 142.5q189 0 297 -108l9 98h139v-1464h-152v549q-109 -129 -301 -129q-109 0 -195.5 41t-141 112.5t-83 165t-28.5 201.5zM231 502q0 -179 83 -284t229 -105q109 0 185 85t97 197v223q0 126 -83.5 202.5t-200.5 76.5q-146 0 -228 -105.5 t-82 -289.5z" />
<glyph unicode="r" horiz-adv-x="657" d="M143 0v1024h138l8 -127q89 139 239 139q70 0 146 -45l-68 -160q-4 18 -33 42t-45 24q-58 0 -104.5 -34.5t-73.5 -88t-41 -111t-14 -110.5v-553h-152z" />
<glyph unicode="s" horiz-adv-x="804" d="M51 121l60 131q104 -137 270 -137q86 0 143.5 47t57.5 117q0 65 -50.5 107t-171.5 83q-278 102 -278 287q0 126 90 203t231 77q86 0 169.5 -35t127.5 -86l-71 -122q-99 108 -221 108q-82 0 -130.5 -39.5t-48.5 -103.5q0 -93 209 -164q71 -24 119 -48.5t91 -60.5t64 -86.5 t21 -115.5q0 -134 -99 -220t-257 -86q-98 0 -189 39t-137 105z" />
<glyph unicode="t" horiz-adv-x="616" d="M12 879v133h176v274l152 21v-295h219v-133h-219v-668q0 -96 82 -96q48 0 123 37v-142q-89 -26 -158 -26q-199 0 -199 213v682h-176z" />
<glyph unicode="u" horiz-adv-x="1062" d="M141 362v662h152v-639q0 -270 217 -270q112 0 191 73.5t79 184.5v651h152v-1024h-127l-8 109q-100 -129 -291 -129q-179 0 -272 96t-93 286z" />
<glyph unicode="v" horiz-adv-x="892" d="M0 1024h156l295 -793l294 793h156l-393 -1026h-119z" />
<glyph unicode="w" horiz-adv-x="1499" d="M2 1024h158l266 -778l266 778h123l258 -772l270 772h154l-371 -1024h-114l-264 776l-263 -776h-123z" />
<glyph unicode="x" horiz-adv-x="958" d="M-12 0l391 541l-365 483h187l266 -367l266 367h182l-362 -483l387 -541h-182l-291 426l-297 -426h-182z" />
<glyph unicode="y" horiz-adv-x="909" d="M-6 1024h164l301 -778l295 778h161l-512 -1282q-37 -95 -98 -139.5t-174 -44.5q-5 0 -17 1t-18 1v135q5 0 14 -1t13 -1q61 0 91.5 17t45.5 52l123 291z" />
<glyph unicode="z" horiz-adv-x="894" d="M31 0v88l622 801h-571v135h780v-88l-614 -801h620v-135h-837z" />
<glyph unicode="{" horiz-adv-x="548" d="M2 567v125q152 37 152 223v340q0 285 264 285h76v-135h-97q-88 0 -88 -139v-330q0 -99 -40.5 -179.5t-108.5 -127.5q149 -88 149 -305v-330q0 -139 88 -139h97v-134h-76q-264 0 -264 283v340q0 186 -152 223z" />
<glyph unicode="|" horiz-adv-x="495" d="M172 -119v1678h154v-1678h-154z" />
<glyph unicode="}" horiz-adv-x="538" d="M29 -145h96q88 0 88 139v330q0 100 40.5 180t108.5 127q-149 88 -149 305v330q0 139 -88 139h-96v135h75q265 0 265 -285v-340q0 -186 151 -223v-125q-151 -37 -151 -223v-340q0 -283 -265 -283h-75v134z" />
<glyph unicode="~" horiz-adv-x="1277" d="M119 520q40 83 123 138t168 55q17 0 41.5 -5.5t67.5 -21t61 -23t77 -30.5q168 -66 201 -66q50 0 93 35.5t108 120.5l86 -117q-39 -81 -118 -137.5t-173 -56.5q-49 0 -240 77q-163 68 -208 68q-98 0 -201 -158z" />
<glyph unicode="&#xa1;" horiz-adv-x="579" d="M174 940q0 54 25 79t75 25q53 0 77 -26t24 -78q0 -102 -101 -102q-56 0 -78 26.5t-22 75.5zM193 35l14 653h135l16 -653l-4 -449h-157z" />
<glyph unicode="&#xa2;" horiz-adv-x="999" d="M119 571q0 231 134.5 380t358.5 149q7 0 13.5 0.5t9 0.5h5.5t7 -1l58 215h137l-66 -246q77 -29 139 -88l-38 -145q-29 30 -56 51t-39.5 28t-40.5 21l-198 -752q20 -4 73 -4q65 0 144.5 36t128.5 93l35 -147q-125 -119 -316 -119q-73 0 -100 6l-66 -237h-135l74 280 q-262 138 -262 479zM272 575q0 -214 146 -333l194 723q-155 -1 -247.5 -108t-92.5 -282z" />
<glyph unicode="&#xa3;" horiz-adv-x="1105" d="M59 121q74 48 164 69q48 12 80.5 49.5t46.5 89.5t18.5 92t4.5 83q0 91 -2 114h-213v138h192q-45 240 -45 319q0 178 111 283.5t291 105.5q211 0 319 -170l-113 -96q-67 129 -211 129q-123 0 -180 -72.5t-57 -212.5q0 -51 47 -286h289v-138h-277q11 -71 11 -133 q3 -197 -99 -305q194 -45 287 -45q156 0 301 103l59 -134q-79 -54 -185.5 -84t-201.5 -30l-395 61q-84 -3 -162 -59z" />
<glyph unicode="&#xa5;" horiz-adv-x="1146" d="M20 1460h185l377 -674l387 674h180l-375 -641h244v-135h-318l-36 -61v-64h354v-133h-354v-426h-164v426h-355v133h355v66l-33 59h-322v135h246z" />
<glyph unicode="&#xa6;" horiz-adv-x="481" d="M172 -119v666h154v-666h-154zM172 893v666h154v-666h-154z" />
<glyph unicode="&#xa7;" horiz-adv-x="1036" d="M152 639q0 92 42.5 164t135.5 131q-129 97 -129 244q0 136 95.5 217.5t248.5 81.5q244 0 329 -199l-106 -82q-68 145 -217 145q-83 0 -140 -42t-57 -117q0 -106 162 -207l174 -107q230 -140 230 -329q0 -174 -181 -293q131 -104 131 -244q0 -137 -99.5 -219t-258.5 -82 q-272 0 -348 190l117 93q69 -148 229 -148q84 0 145.5 43.5t61.5 118.5q0 101 -162 205l-172 108q-125 79 -178 153.5t-53 174.5zM301 651q0 -46 27.5 -90.5t86.5 -90t94 -68t105 -63.5q3 -2 5 -3t5 -3t5 -3q64 29 102.5 85t38.5 115q0 27 -11 55t-25 49.5t-43.5 48.5 t-50 43t-61.5 42.5t-60 37.5t-63 37q-8 5 -12 7q-65 -27 -104 -83t-39 -116z" />
<glyph unicode="&#xa8;" horiz-adv-x="751" d="M188 1534q0 56 14.5 79t67.5 23q30 0 48 -6.5t25.5 -23.5t9 -30t1.5 -42q0 -58 -17.5 -81t-66.5 -23q-53 0 -67.5 23.5t-14.5 80.5zM393 1534q0 55 15.5 78.5t68.5 23.5q24 0 40 -5.5t24.5 -12.5t12.5 -23t4.5 -27t0.5 -34q0 -58 -16.5 -81t-65.5 -23q-53 0 -68.5 24 t-15.5 80z" />
<glyph unicode="&#xa9;" horiz-adv-x="1628" d="M68 721q0 146 57 279.5t153.5 230t229.5 154t278 57.5t278.5 -57.5t230.5 -154t154.5 -229.5t57.5 -278q0 -146 -57 -279t-153 -230t-229.5 -154.5t-279.5 -57.5t-279.5 57t-230 153t-153.5 229.5t-57 279.5zM215 723q0 -156 76.5 -291t209 -215t287.5 -80t288 80 t209.5 215t76.5 291t-76.5 291t-209.5 215t-288 80t-287.5 -80t-209 -215t-76.5 -291zM389 725q0 194 113 317t305 123q132 0 231 -81.5t125 -219.5l-141 -16q-15 84 -76.5 135t-138.5 51q-121 0 -193.5 -84t-72.5 -217q0 -136 70 -227.5t196 -91.5q84 0 143 52.5t78 143.5 l141 -14q-38 -149 -135.5 -233t-226.5 -84q-186 0 -302 127.5t-116 318.5z" />
<glyph unicode="&#xaa;" horiz-adv-x="538" d="M49 1130q0 83 60.5 132t164.5 49q59 0 84 -4v45q0 75 -98 75q-76 0 -143 -61l-37 76q28 31 84 51t100 20q187 0 187 -165v-275l8 -88h-90q-7 21 -7 37q-57 -45 -139 -45q-78 0 -126 42.5t-48 110.5zM145 1133q0 -33 22 -51.5t64 -18.5q44 0 80.5 26t46.5 66v68 q-60 6 -88 6q-55 0 -90 -24t-35 -72z" />
<glyph unicode="&#xab;" horiz-adv-x="964" d="M72 553l307 395h160l-295 -391l295 -389h-160zM399 553l310 395h157l-293 -391l293 -389h-157z" />
<glyph unicode="&#xad;" horiz-adv-x="610" d="M53 479v152h504v-152h-504z" />
<glyph unicode="&#xae;" horiz-adv-x="1054" d="M63 1008q0 191 136.5 326.5t326.5 135.5q124 0 231 -62t170.5 -168t63.5 -230q0 -190 -137 -327.5t-326 -137.5q-126 0 -233 62.5t-169.5 169t-62.5 231.5zM172 1010q0 -148 104.5 -255.5t251.5 -107.5q129 0 230 88h-107l-88 158q-30 54 -41 62q-7 5 -14 6h-62l3 -226 h-109v545h223q189 0 189 -154q0 -130 -113 -155q11 -11 19.5 -24t19 -34.5t14.5 -29.5l80 -135q111 108 111 262q0 148 -104.5 255t-250.5 107q-147 0 -251.5 -107t-104.5 -255zM446 1059h99q92 0 92 67q0 58 -90 58h-101v-125z" />
<glyph unicode="&#xaf;" d="M242 1458v146h592v-146h-592z" />
<glyph unicode="&#xb0;" horiz-adv-x="552" d="M70 1290q0 84 59.5 144.5t144.5 60.5q83 0 144 -61t61 -144t-61 -144t-144 -61q-85 0 -144.5 60.5t-59.5 144.5zM178 1290q0 -39 28.5 -67.5t67.5 -28.5q38 0 67.5 29t29.5 67t-29.5 67t-67.5 29q-39 0 -67.5 -28.5t-28.5 -67.5z" />
<glyph unicode="&#xb1;" horiz-adv-x="1271" d="M98 598v152h457v399h152v-399h456v-152h-456v-408h-152v408h-457zM100 0v133h1065v-133h-1065z" />
<glyph unicode="&#xb2;" horiz-adv-x="864" d="M111 598v72q16 19 39 43t57.5 58.5t63 62.5t81 79.5t86.5 85.5q137 137 137 230q0 67 -49.5 110t-124.5 43q-136 0 -211 -131l-77 76q37 65 117.5 110.5t172.5 45.5q129 0 209 -69.5t80 -180.5q0 -140 -180 -311q-152 -140 -225 -224h426v-100h-602z" />
<glyph unicode="&#xb3;" horiz-adv-x="849" d="M92 707l55 86q35 -57 94.5 -83t118.5 -26q95 0 152 45t57 119q0 151 -219 151h-69v103h51q229 0 229 149q0 56 -51.5 91.5t-132.5 35.5q-146 0 -199 -110l-53 96q28 48 100.5 81.5t155.5 33.5q134 0 215.5 -62.5t81.5 -165.5q0 -137 -123 -196q63 -26 97 -80t34 -129 q0 -119 -89 -190.5t-237 -71.5q-94 0 -168 36t-100 87z" />
<glyph unicode="&#xb4;" horiz-adv-x="931" d="M274 1434l230 323h205l-306 -323h-129z" />
<glyph unicode="&#xb5;" horiz-adv-x="1069" d="M160 -315v1339h151v-631q0 -133 60.5 -201.5t169.5 -68.5q103 0 173.5 75.5t78.5 184.5v641h151v-1024h-127l-2 119q-85 -131 -272 -131q-143 0 -232 59v-362h-151z" />
<glyph unicode="&#xb6;" horiz-adv-x="1198" d="M106 1069q0 189 121.5 295t335.5 106h537v-139h-86v-1603h-156v1599h-192v-1599h-156v931q-172 5 -288 122t-116 288z" />
<glyph unicode="&#xb7;" horiz-adv-x="530" d="M172 547q0 66 20 87t78 21q61 0 80 -21t19 -87q0 -63 -21.5 -85t-77.5 -22q-64 0 -81 20.5t-17 86.5z" />
<glyph unicode="&#xb8;" horiz-adv-x="854" d="M238 -346l2 110q100 -34 129 -34q69 0 69 41q0 39 -55 39h-84l115 233h116l-84 -152q59 0 97.5 -36t38.5 -91q0 -137 -183 -137q-61 0 -161 27z" />
<glyph unicode="&#xb9;" horiz-adv-x="690" d="M184 1393l193 77h65v-874h-116v764l-121 -49z" />
<glyph unicode="&#xba;" horiz-adv-x="589" d="M43 1260q0 116 66.5 192t179.5 76t179.5 -76t66.5 -192t-66.5 -192.5t-179.5 -76.5t-179.5 76.5t-66.5 192.5zM139 1260q0 -75 40 -129t110 -54t109.5 54t39.5 129q0 76 -39.5 129t-109.5 53t-110 -53t-40 -129z" />
<glyph unicode="&#xbb;" horiz-adv-x="966" d="M119 168l291 389l-291 399h157l306 -395l-306 -393h-157zM446 168l293 389l-293 399h160l303 -395l-303 -393h-160z" />
<glyph unicode="&#xbc;" horiz-adv-x="1742" d="M201 1393l192 77h66v-872h-117v762l-121 -49zM285 -33l921 1522h144l-922 -1524zM881 213v76l465 598h98v-572h133v-102h-133v-213h-117v213h-446zM1032 315h295v390z" />
<glyph unicode="&#xbd;" horiz-adv-x="1781" d="M193 1393l192 77h66v-872h-117v762l-121 -49zM246 -31l919 1520h144l-920 -1520h-143zM999 0v72q62 72 326 329q137 134 137 230q0 67 -49 110t-123 43q-137 0 -213 -131l-76 78q35 65 116 110.5t173 45.5q128 0 208.5 -70.5t80.5 -181.5q0 -140 -180 -311 q-148 -133 -225 -222h425v-102h-600z" />
<glyph unicode="&#xbe;" horiz-adv-x="1765" d="M106 707l56 86q33 -57 93.5 -83t119.5 -26q94 0 150.5 45t56.5 119q0 151 -220 151h-69v103h51q229 0 229 149q0 55 -51 91t-131 36q-144 0 -201 -110l-53 96q30 49 102 82t156 33q132 0 213.5 -62.5t81.5 -165.5q0 -137 -123 -196q63 -26 97 -80t34 -129 q0 -119 -88.5 -190.5t-234.5 -71.5q-94 0 -169.5 36t-99.5 87zM389 -33l920 1522h143l-920 -1524zM940 213v76l465 596h98v-570h133v-102h-133v-213h-117v213h-446zM1098 315h288v381z" />
<glyph unicode="&#xbf;" horiz-adv-x="911" d="M135 -82q0 50 14 93.5t46.5 87.5t54 67.5t67.5 69.5q97 97 125.5 139.5t28.5 95.5q0 60 -45 152l121 71q84 -122 84 -223q0 -24 -3 -46t-12.5 -44.5t-15.5 -39t-23 -39t-24.5 -34t-30 -35t-28.5 -30.5t-32 -32.5t-30 -29.5q-72 -72 -106.5 -122t-34.5 -105 q0 -94 57.5 -150.5t155.5 -56.5q64 0 128.5 46t94.5 108l78 -123q-31 -71 -120.5 -122.5t-186.5 -51.5q-163 0 -263 96.5t-100 257.5zM414 936q0 65 20.5 86.5t75.5 21.5q64 0 81 -20.5t17 -87.5q0 -65 -20 -86t-78 -21q-59 0 -77.5 21t-18.5 86z" />
<glyph unicode="&#xc0;" horiz-adv-x="1341" d="M14 0l586 1470h137l578 -1470h-168l-170 438h-627l-170 -438h-166zM408 1741h204l183 -266h-131zM410 584h512l-256 657z" />
<glyph unicode="&#xc1;" horiz-adv-x="1341" d="M14 0l586 1470h137l578 -1470h-168l-170 438h-627l-170 -438h-166zM410 584h512l-256 657zM508 1487l162 270h204l-239 -270h-127z" />
<glyph unicode="&#xc2;" horiz-adv-x="1341" d="M14 0l586 1470h137l578 -1470h-168l-170 438h-627l-170 -438h-166zM393 1462l193 271h168l180 -265h-129l-135 142l-148 -148h-129zM410 584h512l-256 657z" />
<glyph unicode="&#xc3;" horiz-adv-x="1341" d="M14 0l586 1470h137l578 -1470h-168l-170 438h-627l-170 -438h-166zM389 1485q35 196 168 196q38 0 133 -36h-2q87 -31 111 -31q39 0 57 67h107q-34 -196 -170 -196q-37 0 -131 37h2q-84 30 -111 30q-43 0 -64 -67h-100zM410 584h512l-256 657z" />
<glyph unicode="&#xc4;" horiz-adv-x="1341" d="M14 0l586 1470h137l578 -1470h-168l-170 438h-627l-170 -438h-166zM410 584h512l-256 657zM459 1626q0 56 15.5 80.5t68.5 24.5q30 0 48 -7t25.5 -24.5t9 -31t1.5 -42.5q0 -57 -17 -79.5t-67 -22.5q-53 0 -68.5 23t-15.5 79zM700 1626q0 56 15.5 80.5t68.5 24.5 q30 0 48 -7t25.5 -24.5t9 -31t1.5 -42.5q0 -57 -17 -79.5t-67 -22.5q-53 0 -68.5 23t-15.5 79z" />
<glyph unicode="&#xc5;" horiz-adv-x="1341" d="M14 0l557 1401q-42 24 -67 67t-25 95q0 78 53.5 132t131.5 54q76 0 130 -54.5t54 -131.5q0 -47 -24.5 -88.5t-63.5 -67.5l555 -1407h-168l-170 438h-627l-170 -438h-166zM410 584h512l-256 657zM580 1563q0 -25 17.5 -47t43.5 -31h43q27 9 45.5 30.5t18.5 47.5 q0 35 -25 59.5t-59 24.5t-59 -24.5t-25 -59.5z" />
<glyph unicode="&#xc6;" horiz-adv-x="1904" d="M-10 0l856 1458h854v-145h-596v-484h538v-145h-538v-539h616v-145h-776v473h-491l-281 -473h-182zM530 616h414v705h-8z" />
<glyph unicode="&#xc7;" horiz-adv-x="1376" d="M96 729q0 156 52.5 294t145.5 238t227 158t290 58q281 0 449 -177l-52 -153q-172 184 -403 184q-124 0 -227.5 -47.5t-172.5 -129t-107 -191.5t-38 -234q0 -168 64.5 -304.5t191 -218t293.5 -81.5q253 0 410 194l41 -147q-162 -180 -408 -192l-49 -89q58 0 95.5 -35.5 t37.5 -91.5q0 -137 -180 -137q-66 0 -162 27l2 110q96 -34 127 -34q70 0 70 41q0 39 -54 39h-86l86 174q-292 28 -467.5 233.5t-175.5 511.5z" />
<glyph unicode="&#xc8;" horiz-adv-x="1064" d="M168 0v1458h772v-145h-612v-484h553v-145h-553v-539h630v-145h-790zM311 1733h205l180 -265h-129z" />
<glyph unicode="&#xc9;" horiz-adv-x="1064" d="M168 0v1458h772v-145h-612v-484h553v-145h-553v-539h630v-145h-790zM453 1497l227 326h207l-305 -326h-129z" />
<glyph unicode="&#xca;" horiz-adv-x="1064" d="M168 0v1458h772v-145h-612v-484h553v-145h-553v-539h630v-145h-790zM309 1466l193 267h168l180 -265h-129l-135 142l-148 -144h-129z" />
<glyph unicode="&#xcb;" horiz-adv-x="1064" d="M168 0v1458h772v-145h-612v-484h553v-145h-553v-539h630v-145h-790zM375 1626q0 56 15.5 80.5t66.5 24.5q30 0 48 -7t25.5 -24.5t9 -31t1.5 -42.5q0 -58 -16.5 -80t-67.5 -22q-52 0 -67 23.5t-15 78.5zM616 1626q0 56 15.5 80.5t68.5 24.5q30 0 48 -7t25.5 -24.5t9 -31 t1.5 -42.5q0 -57 -17 -79.5t-67 -22.5q-53 0 -68.5 23t-15.5 79z" />
<glyph unicode="&#xcc;" horiz-adv-x="450" d="M-8 1751h205l180 -264h-129zM154 0v1458h159v-1458h-159z" />
<glyph unicode="&#xcd;" horiz-adv-x="450" d="M100 1487l160 270h205l-238 -270h-127zM154 0v1458h159v-1458h-159z" />
<glyph unicode="&#xce;" horiz-adv-x="450" d="M-37 1462l193 271h168l180 -265h-129l-135 142l-148 -148h-129zM154 0v1458h159v-1458h-159z" />
<glyph unicode="&#xcf;" horiz-adv-x="450" d="M25 1626q0 56 15.5 80.5t68.5 24.5q30 0 48 -7t25.5 -24.5t9 -31t1.5 -42.5q0 -57 -17 -79.5t-67 -22.5q-53 0 -68.5 23t-15.5 79zM154 0v1458h159v-1458h-159zM266 1626q0 56 15.5 80.5t68.5 24.5q30 0 48 -7t25.5 -24.5t9 -31t1.5 -42.5q0 -57 -17 -79.5t-67 -22.5 q-53 0 -68.5 23t-15.5 79z" />
<glyph unicode="&#xd0;" horiz-adv-x="1390" d="M0 684v143h168v631h397q337 0 528 -195.5t191 -535.5q0 -337 -203 -534q-199 -193 -559 -193h-354v684h-168zM328 145h190q284 0 443 154t159 428q0 278 -148.5 432t-418.5 154h-225v-486h403v-143h-403v-539z" />
<glyph unicode="&#xd1;" horiz-adv-x="1515" d="M166 0v1458h160l858 -1179v1179h159v-1458h-145l-872 1192v-1192h-160zM500 1458q30 195 168 195q37 0 131 -37h-2q14 -4 41.5 -13.5t43.5 -13.5t27 -4q39 0 58 68h106q-35 -195 -170 -195q-42 0 -131 35h2q-11 4 -33 11.5t-32.5 11t-24 7t-22.5 3.5q-40 0 -62 -68h-100z " />
<glyph unicode="&#xd2;" horiz-adv-x="1554" d="M96 729q0 155 46.5 291.5t132 238t214.5 160t285 58.5h10l-254 264h205l183 -266h-82q114 -9 212.5 -51.5t172.5 -111.5t126.5 -159.5t79.5 -198t27 -225.5q0 -155 -47 -291.5t-133 -238t-215.5 -160.5t-284.5 -59q-207 0 -363 101.5t-235.5 270t-79.5 377.5zM260 729 q0 -120 35 -228.5t98.5 -192.5t162.5 -133.5t218 -49.5t217.5 49.5t163 133.5t100 192.5t35.5 228.5q0 118 -35.5 226t-100 192t-163.5 134t-217 50q-119 0 -217.5 -50t-162.5 -134t-99 -192t-35 -226z" />
<glyph unicode="&#xd3;" horiz-adv-x="1554" d="M96 729q0 155 46.5 291.5t132 238t214.5 160t285 58.5q125 0 233.5 -38t189.5 -106.5t139.5 -161.5t88 -205.5t29.5 -236.5q0 -155 -47 -291.5t-133 -238t-215.5 -160.5t-284.5 -59q-207 0 -363 101.5t-235.5 270t-79.5 377.5zM260 729q0 -120 35 -228.5t98.5 -192.5 t162.5 -133.5t218 -49.5t217.5 49.5t163 133.5t100 192.5t35.5 228.5q0 118 -35.5 226t-100 192t-163.5 134t-217 50q-119 0 -217.5 -50t-162.5 -134t-99 -192t-35 -226zM598 1487l180 270h205l-256 -270h-129z" />
<glyph unicode="&#xd4;" horiz-adv-x="1554" d="M96 729q0 155 46.5 291.5t132 238t214.5 160t285 58.5q125 0 233.5 -38t189.5 -106.5t139.5 -161.5t88 -205.5t29.5 -236.5q0 -155 -47 -291.5t-133 -238t-215.5 -160.5t-284.5 -59q-207 0 -363 101.5t-235.5 270t-79.5 377.5zM260 729q0 -120 35 -228.5t98.5 -192.5 t162.5 -133.5t218 -49.5t217.5 49.5t163 133.5t100 192.5t35.5 228.5q0 118 -35.5 226t-100 192t-163.5 134t-217 50q-119 0 -217.5 -50t-162.5 -134t-99 -192t-35 -226zM496 1466l192 267h168l180 -265h-129l-135 142l-147 -144h-129z" />
<glyph unicode="&#xd5;" horiz-adv-x="1554" d="M96 729q0 155 46.5 291.5t132 238t214.5 160t285 58.5q125 0 233.5 -38t189.5 -106.5t139.5 -161.5t88 -205.5t29.5 -236.5q0 -155 -47 -291.5t-133 -238t-215.5 -160.5t-284.5 -59q-207 0 -363 101.5t-235.5 270t-79.5 377.5zM260 729q0 -120 35 -228.5t98.5 -192.5 t162.5 -133.5t218 -49.5t217.5 49.5t163 133.5t100 192.5t35.5 228.5q0 118 -35.5 226t-100 192t-163.5 134t-217 50q-119 0 -217.5 -50t-162.5 -134t-99 -192t-35 -226zM502 1485q30 196 168 196q38 0 133 -36h-2q87 -31 110 -31q40 0 58 67h106q-34 -196 -170 -196 q-37 0 -131 37h2q-84 30 -110 30q-43 0 -64 -67h-100z" />
<glyph unicode="&#xd6;" horiz-adv-x="1554" d="M96 729q0 155 46.5 291.5t132 238t214.5 160t285 58.5q125 0 233.5 -38t189.5 -106.5t139.5 -161.5t88 -205.5t29.5 -236.5q0 -155 -47 -291.5t-133 -238t-215.5 -160.5t-284.5 -59q-207 0 -363 101.5t-235.5 270t-79.5 377.5zM260 729q0 -120 35 -228.5t98.5 -192.5 t162.5 -133.5t218 -49.5t217.5 49.5t163 133.5t100 192.5t35.5 228.5q0 118 -35.5 226t-100 192t-163.5 134t-217 50q-119 0 -217.5 -50t-162.5 -134t-99 -192t-35 -226zM567 1626q0 56 15.5 80.5t68.5 24.5q30 0 48 -7t25.5 -24.5t9 -31t1.5 -42.5q0 -57 -17 -79.5 t-67 -22.5q-53 0 -68.5 23t-15.5 79zM811 1626q0 57 14.5 81t67.5 24q30 0 48 -7t25.5 -24.5t9 -31t1.5 -42.5q0 -57 -17 -79.5t-67 -22.5q-53 0 -67.5 23t-14.5 79z" />
<glyph unicode="&#xd7;" horiz-adv-x="1271" d="M133 180l389 389l-389 392l107 106l391 -389l391 389l106 -106l-389 -392l389 -389l-106 -108l-391 391l-391 -391z" />
<glyph unicode="&#xd8;" horiz-adv-x="1554" d="M96 729q0 155 46.5 291.5t132 238t214.5 160t285 58.5q221 0 383 -115l88 115h164l-154 -199q96 -103 147.5 -245t51.5 -304q0 -155 -47 -291.5t-133 -238t-215.5 -160.5t-284.5 -59q-242 0 -416 137l-94 -121h-166l166 215q-168 208 -168 518zM260 729q0 -223 107 -385 l692 893q-124 94 -285 94q-119 0 -217.5 -50t-162.5 -134t-99 -192t-35 -226zM455 242q130 -117 319 -117q119 0 217.5 49.5t163 133.5t100 192.5t35.5 228.5q0 117 -35.5 226t-101.5 192z" />
<glyph unicode="&#xd9;" horiz-adv-x="1390" d="M160 516v942h157v-934q0 -191 100 -295t283 -104q181 0 281 106t100 297v930h158v-936q0 -250 -145.5 -396t-393.5 -146q-245 0 -397 143q-143 146 -143 393zM457 1704h205l182 -264h-129z" />
<glyph unicode="&#xda;" horiz-adv-x="1390" d="M160 516v942h157v-934q0 -191 100 -295t283 -104q181 0 281 106t100 297v930h158v-936q0 -250 -145.5 -396t-393.5 -146q-245 0 -397 143q-143 146 -143 393zM557 1434l229 323h205l-305 -323h-129z" />
<glyph unicode="&#xdb;" horiz-adv-x="1390" d="M160 516v942h157v-934q0 -191 100 -295t283 -104q181 0 281 106t100 297v930h158v-936q0 -250 -145.5 -396t-393.5 -146q-245 0 -397 143q-143 146 -143 393zM430 1462l193 271h170l178 -265h-129l-135 142l-148 -148h-129z" />
<glyph unicode="&#xdc;" horiz-adv-x="1390" d="M160 516v942h157v-934q0 -191 100 -295t283 -104q181 0 281 106t100 297v930h158v-936q0 -250 -145.5 -396t-393.5 -146q-245 0 -397 143q-143 146 -143 393zM502 1626q0 56 15.5 80.5t68.5 24.5q30 0 47.5 -7t24.5 -24.5t8.5 -31t1.5 -42.5q0 -58 -16.5 -80t-65.5 -22 q-53 0 -68.5 23t-15.5 79zM743 1626q0 56 15.5 80.5t68.5 24.5q30 0 48 -7t25.5 -24.5t9 -31t1.5 -42.5q0 -57 -17 -79.5t-67 -22.5q-53 0 -68.5 23t-15.5 79z" />
<glyph unicode="&#xdd;" horiz-adv-x="1189" d="M-2 1458h188l408 -657l418 657h182l-518 -809v-649h-160v651zM453 1434l229 323h205l-305 -323h-129z" />
<glyph unicode="&#xde;" horiz-adv-x="1081" d="M170 0v1458h160v-291h215q220 0 341.5 -107.5t121.5 -305.5q0 -189 -125.5 -298.5t-339.5 -109.5h-213v-346h-160zM330 492h188q163 0 245.5 69t82.5 201q0 260 -297 260h-219v-530z" />
<glyph unicode="&#xdf;" horiz-adv-x="1079" d="M143 0v1114q0 199 98.5 313.5t290.5 114.5q168 0 270.5 -100t102.5 -264q0 -100 -47 -180.5t-127 -127.5q131 -40 204 -147t73 -260q0 -203 -121 -339t-316 -136q-71 0 -161 22l30 150q76 -33 131 -33q119 0 199 99.5t80 234.5q0 153 -85 238t-245 85h-47v136h45 q104 0 168 71.5t64 184.5q0 106 -61.5 169.5t-166.5 63.5q-229 0 -229 -324v-1085h-150z" />
<glyph unicode="&#xe0;" horiz-adv-x="987" d="M70 276q0 158 118 251.5t322 93.5q103 0 192 -13v119q0 176 -221 176q-154 0 -286 -117l-54 121q49 56 153.5 93.5t192.5 37.5q365 0 365 -321v-561q10 -109 12 -156h-143q-10 60 -12 98q-127 -118 -301 -118q-152 0 -245 83t-93 213zM219 1333h207l180 -264h-129z M221 279q0 -75 52.5 -119.5t150.5 -44.5q99 0 177.5 60t100.5 153v151q-87 17 -198 17q-124 0 -203.5 -53.5t-79.5 -163.5z" />
<glyph unicode="&#xe1;" horiz-adv-x="987" d="M70 276q0 158 118 251.5t322 93.5q103 0 192 -13v119q0 176 -221 176q-154 0 -286 -117l-54 121q49 56 153.5 93.5t192.5 37.5q365 0 365 -321v-561q10 -109 12 -156h-143q-10 60 -12 98q-127 -118 -301 -118q-152 0 -245 83t-93 213zM221 279q0 -75 52.5 -119.5 t150.5 -44.5q99 0 177.5 60t100.5 153v151q-87 17 -198 17q-124 0 -203.5 -53.5t-79.5 -163.5zM379 1063l160 270h204l-237 -270h-127z" />
<glyph unicode="&#xe2;" horiz-adv-x="987" d="M70 276q0 158 118 251.5t322 93.5q103 0 192 -13v119q0 176 -221 176q-154 0 -286 -117l-54 121q49 56 153.5 93.5t192.5 37.5q365 0 365 -321v-561q10 -109 12 -156h-143q-10 60 -12 98q-127 -118 -301 -118q-152 0 -245 83t-93 213zM215 1069l193 270h167l181 -264 h-129l-135 142l-148 -148h-129zM221 279q0 -75 52.5 -119.5t150.5 -44.5q99 0 177.5 60t100.5 153v151q-87 17 -198 17q-124 0 -203.5 -53.5t-79.5 -163.5z" />
<glyph unicode="&#xe3;" horiz-adv-x="987" d="M70 276q0 158 118 251.5t322 93.5q103 0 192 -13v119q0 176 -221 176q-154 0 -286 -117l-54 121q49 56 153.5 93.5t192.5 37.5q365 0 365 -321v-561q10 -109 12 -156h-143q-10 60 -12 98q-127 -118 -301 -118q-152 0 -245 83t-93 213zM197 1063q30 194 168 194 q43 0 133 -34h-2q93 -33 110 -33q39 0 58 67h106q-35 -194 -170 -194q-37 0 -131 37h2q-96 30 -113 30q-40 0 -61 -67h-100zM221 279q0 -75 52.5 -119.5t150.5 -44.5q99 0 177.5 60t100.5 153v151q-87 17 -198 17q-124 0 -203.5 -53.5t-79.5 -163.5z" />
<glyph unicode="&#xe4;" horiz-adv-x="987" d="M70 276q0 158 118 251.5t322 93.5q103 0 192 -13v119q0 176 -221 176q-154 0 -286 -117l-54 121q49 56 153.5 93.5t192.5 37.5q365 0 365 -321v-561q10 -109 12 -156h-143q-10 60 -12 98q-127 -118 -301 -118q-152 0 -245 83t-93 213zM221 279q0 -75 52.5 -119.5 t150.5 -44.5q99 0 177.5 60t100.5 153v151q-87 17 -198 17q-124 0 -203.5 -53.5t-79.5 -163.5zM287 1221q0 57 14.5 80.5t67.5 23.5q30 0 48 -7t25.5 -24t9 -30.5t1.5 -42.5q0 -58 -17.5 -81.5t-66.5 -23.5q-53 0 -67.5 24t-14.5 81zM528 1221q0 56 15.5 80t68.5 24 q30 0 48 -7t25.5 -24t9 -30.5t1.5 -42.5q0 -58 -17.5 -81.5t-66.5 -23.5q-53 0 -68.5 24.5t-15.5 80.5z" />
<glyph unicode="&#xe5;" horiz-adv-x="987" d="M70 276q0 158 118 251.5t322 93.5q103 0 192 -13v119q0 176 -221 176q-154 0 -286 -117l-54 121q49 56 153.5 93.5t192.5 37.5q365 0 365 -321v-561q10 -109 12 -156h-143q-10 60 -12 98q-127 -118 -301 -118q-152 0 -245 83t-93 213zM221 279q0 -75 52.5 -119.5 t150.5 -44.5q99 0 177.5 60t100.5 153v151q-87 17 -198 17q-124 0 -203.5 -53.5t-79.5 -163.5zM328 1235q0 68 49 117t119 49q66 0 116 -49.5t50 -116.5t-50 -117.5t-116 -50.5q-70 0 -119 50t-49 118zM424 1235q0 -31 20.5 -51.5t51.5 -20.5q30 0 50.5 20.5t20.5 51.5 q0 29 -21 50.5t-50 21.5q-30 0 -51 -21t-21 -51z" />
<glyph unicode="&#xe6;" horiz-adv-x="1650" d="M70 274q0 156 115 250t323 94q122 0 188 -6v86q0 203 -217 203q-151 0 -289 -121l-38 133q60 57 154.5 90t180.5 33q232 0 316 -162q122 162 321 162q186 0 294.5 -134t113.5 -363v-62h-694q4 -105 37.5 -184.5t106 -128.5t177.5 -49q69 0 156.5 49.5t132.5 118.5 l53 -138q-54 -74 -157.5 -119.5t-215.5 -45.5q-223 0 -348 184q-60 -95 -152.5 -139.5t-228.5 -44.5q-150 0 -239.5 81.5t-89.5 212.5zM223 276q0 -161 199 -161q105 0 189.5 72t84.5 182v110q-67 13 -157 13q-152 0 -234 -59.5t-82 -156.5zM846 610h526q-11 134 -77 211.5 t-171 77.5q-113 0 -186.5 -83t-91.5 -206z" />
<glyph unicode="&#xe7;" horiz-adv-x="925" d="M70 508q0 151 59 270t172 188.5t262 69.5q182 0 303 -118l-37 -146q-124 127 -262 127q-157 0 -250.5 -105t-93.5 -282q0 -170 91.5 -283.5t252.5 -113.5q64 0 144 37.5t129 95.5l34 -150q-118 -112 -294 -118l-50 -89q59 0 96.5 -36t37.5 -91q0 -137 -181 -137 q-65 0 -161 27l2 110q96 -34 127 -34q69 0 69 41q0 39 -53 39h-86l86 176q-187 29 -292 171t-105 351z" />
<glyph unicode="&#xe8;" d="M70 512q0 101 31 195t86.5 167.5t141.5 117.5t189 44q202 0 316 -146t114 -413h-727q11 -164 95 -263t241 -99q74 0 159.5 41.5t131.5 105.5l76 -115q-55 -75 -160.5 -121t-218.5 -46q-223 0 -349 141.5t-126 390.5zM229 610h555q-19 131 -88 210t-172 79 q-119 0 -197 -81.5t-98 -207.5zM285 1333h204l183 -264h-129z" />
<glyph unicode="&#xe9;" d="M70 512q0 101 31 195t86.5 167.5t141.5 117.5t189 44q202 0 316 -146t114 -413h-727q11 -164 95 -263t241 -99q74 0 159.5 41.5t131.5 105.5l76 -115q-55 -75 -160.5 -121t-218.5 -46q-223 0 -349 141.5t-126 390.5zM229 610h555q-19 131 -88 210t-172 79 q-119 0 -197 -81.5t-98 -207.5zM371 1063l161 270h205l-239 -270h-127z" />
<glyph unicode="&#xea;" d="M70 512q0 101 31 195t86.5 167.5t141.5 117.5t189 44q202 0 316 -146t114 -413h-727q11 -164 95 -263t241 -99q74 0 159.5 41.5t131.5 105.5l76 -115q-55 -75 -160.5 -121t-218.5 -46q-223 0 -349 141.5t-126 390.5zM229 610h555q-19 131 -88 210t-172 79 q-119 0 -197 -81.5t-98 -207.5zM246 1069l192 270h170l178 -264h-129l-135 142l-147 -148h-129z" />
<glyph unicode="&#xeb;" d="M70 512q0 101 31 195t86.5 167.5t141.5 117.5t189 44q202 0 316 -146t114 -413h-727q11 -164 95 -263t241 -99q74 0 159.5 41.5t131.5 105.5l76 -115q-55 -75 -160.5 -121t-218.5 -46q-223 0 -349 141.5t-126 390.5zM229 610h555q-19 131 -88 210t-172 79 q-119 0 -197 -81.5t-98 -207.5zM315 1221q0 56 15.5 80t68.5 24q30 0 47.5 -7t24.5 -24t8.5 -30.5t1.5 -42.5q0 -58 -16.5 -81.5t-65.5 -23.5q-53 0 -68.5 24.5t-15.5 80.5zM557 1221q0 56 15.5 80t68.5 24q30 0 48 -7t25.5 -24t9 -30.5t1.5 -42.5q0 -58 -17.5 -81.5 t-66.5 -23.5q-53 0 -68.5 24.5t-15.5 80.5z" />
<glyph unicode="&#xec;" horiz-adv-x="409" d="M-12 1333h205l180 -264h-129zM145 0v1024h152v-1024h-152z" />
<glyph unicode="&#xed;" horiz-adv-x="409" d="M76 1063l160 270h204l-237 -270h-127zM145 0v1024h152v-1024h-152z" />
<glyph unicode="&#xee;" horiz-adv-x="409" d="M-53 1069l192 270h170l178 -264h-129l-135 142l-147 -148h-129zM145 0v1024h152v-1024h-152z" />
<glyph unicode="&#xef;" horiz-adv-x="409" d="M20 1221q0 56 15.5 80t68.5 24q30 0 48 -7t25.5 -24t9 -30.5t1.5 -42.5q0 -58 -17.5 -81.5t-66.5 -23.5q-53 0 -68.5 24.5t-15.5 80.5zM145 0v1024h152v-1024h-152zM262 1221q0 56 15.5 80t68.5 24q30 0 48 -7t25.5 -24t9 -30.5t1.5 -42.5q0 -58 -17.5 -81.5t-66.5 -23.5 q-53 0 -68.5 24.5t-15.5 80.5z" />
<glyph unicode="&#xf0;" horiz-adv-x="1105" d="M72 504q0 230 133.5 381t355.5 151q142 0 258 -84q-66 158 -205 285l-219 -131l-80 104l189 113q-94 58 -225 96l71 119q183 -63 285 -139l199 121l73 -109l-168 -100q156 -151 230.5 -337.5t74.5 -428.5q0 -119 -30 -221t-88 -180t-151.5 -122.5t-213.5 -44.5 q-148 0 -260 69.5t-170.5 188.5t-58.5 269zM225 504q0 -106 38.5 -194.5t116 -143.5t181.5 -55q101 0 178 57t114.5 145.5t37.5 192.5q0 109 -36 197.5t-112 144t-182 55.5t-183.5 -55.5t-115 -144.5t-37.5 -199z" />
<glyph unicode="&#xf1;" horiz-adv-x="1064" d="M143 0v1024h140l4 -117q54 72 122.5 102.5t163.5 30.5q172 0 266.5 -101t94.5 -294v-645h-152v633q0 132 -58 202t-163 70q-109 0 -187.5 -84.5t-78.5 -204.5v-616h-152zM268 1063q30 194 168 194q43 0 133 -34h-2q93 -33 111 -33q38 0 57 67h107q-35 -194 -170 -194 q-37 0 -131 37h2q-96 30 -113 30q-40 0 -61 -67h-101z" />
<glyph unicode="&#xf2;" horiz-adv-x="1110" d="M72 508q0 148 56.5 267t167 190t257.5 71t257.5 -71t167 -190t56.5 -267q0 -150 -56 -268.5t-166.5 -189t-258.5 -70.5t-258.5 70.5t-166.5 189t-56 268.5zM227 508q0 -79 21.5 -149t61.5 -125t103 -87t140 -32q152 0 239 115t87 278q0 105 -36 192.5t-112 143t-178 55.5 q-77 0 -140 -32t-103 -86t-61.5 -124t-21.5 -149zM326 1333h204l183 -264h-129z" />
<glyph unicode="&#xf3;" horiz-adv-x="1110" d="M72 508q0 148 56.5 267t167 190t257.5 71t257.5 -71t167 -190t56.5 -267q0 -150 -56 -268.5t-166.5 -189t-258.5 -70.5t-258.5 70.5t-166.5 189t-56 268.5zM227 508q0 -79 21.5 -149t61.5 -125t103 -87t140 -32q152 0 239 115t87 278q0 105 -36 192.5t-112 143t-178 55.5 q-77 0 -140 -32t-103 -86t-61.5 -124t-21.5 -149zM391 1063l162 270h205l-240 -270h-127z" />
<glyph unicode="&#xf4;" horiz-adv-x="1110" d="M72 508q0 148 56.5 267t167 190t257.5 71t257.5 -71t167 -190t56.5 -267q0 -150 -56 -268.5t-166.5 -189t-258.5 -70.5t-258.5 70.5t-166.5 189t-56 268.5zM227 508q0 -79 21.5 -149t61.5 -125t103 -87t140 -32q152 0 239 115t87 278q0 105 -36 192.5t-112 143t-178 55.5 q-77 0 -140 -32t-103 -86t-61.5 -124t-21.5 -149zM270 1069l193 270h170l178 -264h-129l-135 142l-148 -148h-129z" />
<glyph unicode="&#xf5;" horiz-adv-x="1110" d="M72 508q0 148 56.5 267t167 190t257.5 71t257.5 -71t167 -190t56.5 -267q0 -150 -56 -268.5t-166.5 -189t-258.5 -70.5t-258.5 70.5t-166.5 189t-56 268.5zM227 508q0 -79 21.5 -149t61.5 -125t103 -87t140 -32q152 0 239 115t87 278q0 105 -36 192.5t-112 143t-178 55.5 q-77 0 -140 -32t-103 -86t-61.5 -124t-21.5 -149zM293 1063q30 194 168 194q44 0 131 -34h-2q11 -4 33 -11.5t32.5 -11t24 -7t22.5 -3.5q39 0 58 67h106q-35 -194 -170 -194q-37 0 -131 37h2q-13 4 -33 10.5t-31.5 10t-25 6.5t-22.5 3q-41 0 -62 -67h-100z" />
<glyph unicode="&#xf6;" horiz-adv-x="1110" d="M72 508q0 148 56.5 267t167 190t257.5 71t257.5 -71t167 -190t56.5 -267q0 -150 -56 -268.5t-166.5 -189t-258.5 -70.5t-258.5 70.5t-166.5 189t-56 268.5zM227 508q0 -79 21.5 -149t61.5 -125t103 -87t140 -32q152 0 239 115t87 278q0 105 -36 192.5t-112 143t-178 55.5 q-77 0 -140 -32t-103 -86t-61.5 -124t-21.5 -149zM346 1221q0 56 15.5 80t68.5 24q30 0 48 -7t25.5 -24t9 -30.5t1.5 -42.5q0 -58 -17.5 -81.5t-66.5 -23.5q-53 0 -68.5 24.5t-15.5 80.5zM590 1221q0 57 14.5 80.5t67.5 23.5q30 0 48 -7t25.5 -24t9 -30.5t1.5 -42.5 q0 -58 -17.5 -81.5t-66.5 -23.5q-53 0 -67.5 24t-14.5 81z" />
<glyph unicode="&#xf7;" horiz-adv-x="1255" d="M98 494v151h1065v-151h-1065zM541 199q0 66 20 87t78 21q61 0 79.5 -20.5t18.5 -87.5q0 -64 -21 -85.5t-77 -21.5q-64 0 -81 20t-17 87zM541 952q0 65 20 86t78 21q61 0 79.5 -20.5t18.5 -86.5q0 -64 -21 -86t-77 -22q-64 0 -81 20.5t-17 87.5z" />
<glyph unicode="&#xf8;" horiz-adv-x="1110" d="M49 -4l129 160q-106 139 -106 352q0 148 56.5 267t167 190t257.5 71q159 0 276 -84l62 74h164l-133 -164q112 -139 112 -354q0 -150 -56 -268.5t-166.5 -189t-258.5 -70.5q-164 0 -283 86l-55 -70h-166zM227 508q0 -133 54 -229l456 559q-77 61 -184 61q-77 0 -140 -32 t-103 -86t-61.5 -124t-21.5 -149zM362 178q78 -63 191 -63q152 0 239 115t87 278q0 133 -58 231z" />
<glyph unicode="&#xf9;" horiz-adv-x="1062" d="M141 362v662h152v-639q0 -270 217 -270q112 0 191 73.5t79 184.5v651h152v-1024h-127l-8 109q-100 -129 -291 -129q-179 0 -272 96t-93 286zM291 1333h207l180 -264h-129z" />
<glyph unicode="&#xfa;" horiz-adv-x="1062" d="M141 362v662h152v-639q0 -270 217 -270q112 0 191 73.5t79 184.5v651h152v-1024h-127l-8 109q-100 -129 -291 -129q-179 0 -272 96t-93 286zM393 1063l162 270h205l-240 -270h-127z" />
<glyph unicode="&#xfb;" horiz-adv-x="1062" d="M141 362v662h152v-639q0 -270 217 -270q112 0 191 73.5t79 184.5v651h152v-1024h-127l-8 109q-100 -129 -291 -129q-179 0 -272 96t-93 286zM268 1069l193 270h170l178 -264h-129l-135 142l-148 -148h-129z" />
<glyph unicode="&#xfc;" horiz-adv-x="1062" d="M141 362v662h152v-639q0 -270 217 -270q112 0 191 73.5t79 184.5v651h152v-1024h-127l-8 109q-100 -129 -291 -129q-179 0 -272 96t-93 286zM336 1221q0 56 15.5 80t68.5 24q30 0 47.5 -7t24.5 -24t8.5 -30.5t1.5 -42.5q0 -58 -16.5 -81.5t-65.5 -23.5q-53 0 -68.5 24.5 t-15.5 80.5zM578 1221q0 56 15.5 80t68.5 24q30 0 48 -7t25 -24.5t8.5 -30.5t1.5 -42q0 -58 -17 -81.5t-66 -23.5q-53 0 -68.5 24.5t-15.5 80.5z" />
<glyph unicode="&#xfd;" horiz-adv-x="909" d="M-6 1024h164l301 -778l295 778h161l-512 -1282q-37 -95 -98 -139.5t-174 -44.5q-5 0 -17 1t-18 1v135q5 0 14 -1t13 -1q61 0 91.5 17t45.5 52l123 291zM315 985l230 326l205 -2l-306 -324h-129z" />
<glyph unicode="&#xfe;" horiz-adv-x="1124" d="M145 -440v1974h152v-614q51 55 129.5 85.5t159.5 30.5q111 0 199 -41.5t143.5 -114t84.5 -168t29 -206.5q0 -107 -29 -201t-83.5 -167t-141 -115.5t-194.5 -42.5q-186 0 -297 120v-540h-152zM295 440q0 -132 84.5 -228.5t195.5 -96.5q147 0 228.5 104.5t81.5 288.5 q0 102 -33 189t-104.5 144.5t-169.5 57.5q-115 0 -199 -85t-84 -222v-152z" />
<glyph unicode="&#xff;" horiz-adv-x="909" d="M-6 1024h164l301 -778l295 778h161l-512 -1282q-37 -95 -98 -139.5t-174 -44.5q-5 0 -17 1t-18 1v135q5 0 14 -1t13 -1q61 0 91.5 17t45.5 52l123 291zM260 1227q0 55 15.5 78.5t68.5 23.5q24 0 40 -5.5t24.5 -12.5t12.5 -23t4.5 -27t0.5 -34q0 -58 -16.5 -81.5 t-65.5 -23.5q-53 0 -68.5 24.5t-15.5 80.5zM502 1227q0 55 15.5 78.5t68.5 23.5q30 0 48 -6.5t25.5 -23.5t9 -30t1.5 -42q0 -58 -17.5 -81.5t-66.5 -23.5q-53 0 -68.5 24.5t-15.5 80.5z" />
<glyph unicode="&#x152;" horiz-adv-x="2193" d="M106 729q0 156 46.5 292t131.5 237.5t213.5 160t284.5 58.5q315 0 494 -226v207h772v-145h-612v-484h551v-145l-551 -2v-537h630v-145h-790v215q-86 -111 -211.5 -173t-282.5 -62q-207 0 -362.5 101.5t-234.5 270t-79 377.5zM268 729q0 -120 35 -228.5t98.5 -192.5 t162.5 -133.5t218 -49.5q129 0 244 66.5t182.5 173t67.5 221.5v299q0 76 -41 156t-107.5 144t-158.5 105t-187 41q-119 0 -217.5 -50t-162.5 -134t-99 -192t-35 -226z" />
<glyph unicode="&#x153;" horiz-adv-x="1861" d="M82 508q0 148 56.5 267t167 190t257.5 71q139 0 241 -57.5t161 -165.5q62 100 158.5 161.5t213.5 61.5q203 0 316.5 -145.5t113.5 -413.5h-723q0 -153 92.5 -257.5t241.5 -104.5q72 0 159 42t132 105l76 -115q-55 -75 -160.5 -121t-218.5 -46q-133 0 -237 60.5 t-166 166.5q-52 -103 -159.5 -165t-240.5 -62q-148 0 -258.5 70.5t-166.5 189t-56 268.5zM238 508q0 -106 36 -193.5t111 -143.5t178 -56q81 0 144 32t101.5 88.5t58.5 129.5t22 159q-2 102 -39.5 185.5t-112 136.5t-174.5 53q-103 0 -178 -55t-111 -142.5t-36 -193.5z M1049 610h557q-19 131 -89.5 210t-173.5 79q-118 0 -196 -81.5t-98 -207.5z" />
<glyph unicode="&#x178;" horiz-adv-x="1189" d="M-2 1458h188l408 -657l418 657h182l-518 -809v-649h-160v651zM399 1626q0 56 15.5 80.5t68.5 24.5q30 0 47.5 -7t24.5 -24.5t8.5 -31t1.5 -42.5q0 -58 -16.5 -80t-65.5 -22q-53 0 -68.5 23t-15.5 79zM641 1626q0 56 15.5 80.5t68.5 24.5q30 0 48 -7t25.5 -24.5t9 -31 t1.5 -42.5q0 -57 -17 -79.5t-67 -22.5q-53 0 -68.5 23t-15.5 79z" />
<glyph unicode="&#x2c6;" d="M231 1462l193 271h170l178 -265h-129l-135 142l-148 -148h-129z" />
<glyph unicode="&#x2dc;" horiz-adv-x="911" d="M158 1458q35 195 170 195q37 0 131 -37h-2q12 -4 32 -10.5t32 -10.5t25 -7t21 -3q42 0 58 68h106q-35 -195 -170 -195q-42 0 -131 35h2q-93 33 -110 33q-43 0 -62 -68h-102z" />
<glyph unicode="&#x2000;" horiz-adv-x="911" />
<glyph unicode="&#x2001;" horiz-adv-x="1823" />
<glyph unicode="&#x2002;" horiz-adv-x="911" />
<glyph unicode="&#x2003;" horiz-adv-x="1823" />
<glyph unicode="&#x2004;" horiz-adv-x="607" />
<glyph unicode="&#x2005;" horiz-adv-x="455" />
<glyph unicode="&#x2006;" horiz-adv-x="303" />
<glyph unicode="&#x2007;" horiz-adv-x="303" />
<glyph unicode="&#x2008;" horiz-adv-x="227" />
<glyph unicode="&#x2009;" horiz-adv-x="364" />
<glyph unicode="&#x200a;" horiz-adv-x="101" />
<glyph unicode="&#x2010;" horiz-adv-x="610" d="M53 479v152h504v-152h-504z" />
<glyph unicode="&#x2011;" horiz-adv-x="610" d="M53 479v152h504v-152h-504z" />
<glyph unicode="&#x2012;" horiz-adv-x="610" d="M53 479v152h504v-152h-504z" />
<glyph unicode="&#x2013;" horiz-adv-x="1028" d="M-8 494v143h1042v-143h-1042z" />
<glyph unicode="&#x2014;" horiz-adv-x="1896" d="M4 494v143h1884v-143h-1884z" />
<glyph unicode="&#x2018;" horiz-adv-x="432" d="M70 1178q0 17 12 77q14 44 52 145t54 132q9 18 22 27t22.5 10.5t29.5 1.5q65 0 41 -58h2q-53 -185 -53 -284q0 -69 -18.5 -94t-57.5 -25h-45q-61 0 -61 68z" />
<glyph unicode="&#x2019;" horiz-adv-x="413" d="M84 1135q53 188 53 284q0 69 19 95t57 26h45q61 0 61 -70q0 -21 -12 -75q-13 -43 -51.5 -145t-54.5 -134q-9 -18 -22 -27t-22.5 -10.5t-29.5 -1.5q-65 0 -41 58h-2z" />
<glyph unicode="&#x201a;" horiz-adv-x="555" d="M143 -207q54 188 54 285q0 69 18.5 94t56.5 25h45q62 0 62 -68q0 -18 -12 -78q-13 -42 -52 -143t-55 -133q-9 -18 -22 -27t-22.5 -10.5t-29.5 -1.5q-63 0 -41 57h-2z" />
<glyph unicode="&#x201c;" horiz-adv-x="620" d="M72 1178q0 30 14 77q13 42 52 143.5t55 133.5q6 14 14 22.5t18.5 12t18 4t22.5 0.5q65 0 41 -58h2q-53 -174 -53 -284q0 -69 -19.5 -94t-56.5 -25h-47q-61 0 -61 68zM295 1178q0 30 14 77q12 37 51 139.5t54 137.5q9 18 22 27t22.5 10.5t28.5 1.5q67 0 43 -58h2 q-53 -174 -53 -284q0 -69 -19.5 -94t-56.5 -25h-47q-61 0 -61 68z" />
<glyph unicode="&#x201d;" horiz-adv-x="647" d="M86 1135q53 177 53 284q0 69 19.5 95t56.5 26h47q62 0 62 -70q0 -30 -15 -75q-12 -39 -50 -141.5t-54 -137.5q-9 -18 -22.5 -27t-23 -10.5t-28.5 -1.5q-67 0 -43 58h-2zM309 1135q53 177 53 284q0 69 19.5 95t56.5 26h47q62 0 62 -70q0 -30 -15 -75q-13 -43 -51.5 -145 t-54.5 -134q-8 -18 -21 -27t-23 -10.5t-30 -1.5q-65 0 -41 58h-2z" />
<glyph unicode="&#x201e;" horiz-adv-x="741" d="M145 -207q54 177 54 285q0 69 19 94t56 25h48q61 0 61 -68q0 -31 -14 -78q-12 -37 -50.5 -139t-54.5 -137q-9 -18 -22.5 -27t-23 -10.5t-28.5 -1.5q-65 0 -43 57h-2zM369 -207q53 174 53 285q0 69 19.5 94t56.5 25h47q61 0 61 -68q0 -31 -14 -78q-13 -42 -52 -143 t-55 -133q-6 -14 -14 -22.5t-18.5 -12t-18 -4t-22.5 -0.5q-63 0 -41 57h-2z" />
<glyph unicode="&#x2022;" d="M250 586q0 134 81 224.5t210 90.5q147 0 226 -85.5t79 -229.5q0 -141 -80 -225.5t-211 -84.5q-134 0 -219.5 83.5t-85.5 226.5z" />
<glyph unicode="&#x2026;" horiz-adv-x="1089" d="M82 104q0 65 20 86t78 21q61 0 80 -21t19 -86q0 -64 -21.5 -86t-77.5 -22q-64 0 -81 20.5t-17 87.5zM444 104q0 65 20.5 86t78.5 21q61 0 79.5 -21t18.5 -86q0 -64 -21 -86t-77 -22q-64 0 -81.5 20.5t-17.5 87.5zM809 104q0 65 20 86t78 21q61 0 80 -21t19 -86 q0 -64 -21.5 -86t-77.5 -22q-64 0 -81 20.5t-17 87.5z" />
<glyph unicode="&#x202f;" horiz-adv-x="364" />
<glyph unicode="&#x2039;" horiz-adv-x="661" d="M66 553l309 395h160l-295 -391l295 -389h-160z" />
<glyph unicode="&#x203a;" horiz-adv-x="727" d="M113 168l293 389l-293 399h159l306 -395l-306 -393h-159z" />
<glyph unicode="&#x205f;" horiz-adv-x="455" />
<glyph unicode="&#x20ac;" horiz-adv-x="1318" d="M-2 580v118h96q-3 42 0 84h-96v129h115q51 253 245 409.5t453 156.5q269 0 438 -181l-41 -151q-171 186 -403 186q-194 0 -337 -115t-187 -305h755v-129h-776q-4 -59 -2 -84h782v-118h-768q42 -196 191 -325.5t346 -129.5q252 0 405 190l52 -153q-179 -182 -449 -182 q-182 0 -334 73.5t-251.5 210t-127.5 316.5h-106z" />
<glyph unicode="&#x2122;" horiz-adv-x="1333" d="M76 1360v100h463v-100h-177v-471h-110v471h-176zM594 889v571h143l146 -383l141 383h147v-571h-104v389l-152 -389h-73l-144 371v-371h-104z" />
<glyph unicode="&#xfb01;" horiz-adv-x="1042" d="M27 881v133h168v186q0 174 71.5 260t218.5 86q75 0 136 -30v-138q-84 33 -134 33q-141 0 -141 -207v-190h213v-133h-213v-881h-151v881h-168zM725 1337q0 56 15.5 80.5t68.5 24.5q30 0 48 -6.5t25.5 -24t9 -31.5t1.5 -43q0 -57 -17 -79.5t-67 -22.5q-53 0 -68.5 23.5 t-15.5 78.5zM733 0v1024h152v-1024h-152z" />
<glyph unicode="&#xfb02;" d="M27 881v133h168v186q0 174 71.5 260t218.5 86q75 0 136 -30v-138q-84 33 -134 33q-141 0 -141 -207v-190h213v-133h-213v-881h-151v881h-168zM723 0v1534h151v-1534h-151z" />
</font>
</defs>
</svg>
